<svg xmlns="http://www.w3.org/2000/svg" width="1000" height="170" viewBox="0 0 1000 170" role="img" aria-label="Samyuktha Subramanian — Full-Stack Developer">
  <path d="M106.27 96.96Q100.69 96.96 96.42 94.97Q92.16 92.97 89.75 89.26Q87.34 85.54 87.34 80.31L87.34 78.38L96.29 78.38L96.29 80.31Q96.29 84.64 98.97 86.81Q101.66 88.98 106.27 88.98Q110.95 88.98 113.25 87.12Q115.56 85.26 115.56 82.37Q115.56 80.38 114.42 79.14Q113.29 77.90 111.12 77.11Q108.95 76.32 105.85 75.63L104.27 75.28Q99.32 74.18 95.77 72.50Q92.23 70.81 90.33 68.06Q88.44 65.31 88.44 60.90Q88.44 56.50 90.54 53.36Q92.64 50.23 96.46 48.55Q100.28 46.86 105.44 46.86Q110.60 46.86 114.63 48.62Q118.65 50.37 120.96 53.85Q123.27 57.32 123.27 62.55L123.27 64.62L114.32 64.62L114.32 62.55Q114.32 59.80 113.25 58.11Q112.18 56.43 110.19 55.64Q108.19 54.84 105.44 54.84Q101.31 54.84 99.35 56.39Q97.39 57.94 97.39 60.63Q97.39 62.41 98.32 63.65Q99.25 64.89 101.10 65.72Q102.96 66.54 105.85 67.16L107.44 67.51Q112.60 68.61 116.42 70.33Q120.24 72.05 122.37 74.87Q124.50 77.69 124.50 82.10Q124.50 86.50 122.27 89.84Q120.03 93.18 115.94 95.07Q111.84 96.96 106.27 96.96M142.12 96.96Q138.48 96.96 135.58 95.69Q132.69 94.42 131.01 91.97Q129.32 89.53 129.32 86.02Q129.32 82.51 131.01 80.14Q132.69 77.76 135.69 76.56Q138.68 75.35 142.54 75.35L151.90 75.35L151.90 73.43Q151.90 71.02 150.38 69.47Q148.87 67.92 145.56 67.92Q142.33 67.92 140.75 69.40Q139.16 70.88 138.68 73.22L130.70 70.54Q131.52 67.92 133.35 65.75Q135.17 63.58 138.23 62.24Q141.30 60.90 145.70 60.90Q152.45 60.90 156.37 64.27Q160.29 67.65 160.29 74.05L160.29 86.78Q160.29 88.84 162.22 88.84L164.97 88.84L164.97 96L159.19 96Q156.64 96 154.99 94.76Q153.34 93.52 153.34 91.46L153.34 91.39L152.03 91.39Q151.76 92.21 150.79 93.56Q149.83 94.90 147.77 95.93Q145.70 96.96 142.12 96.96M143.64 89.94Q147.28 89.94 149.59 87.91Q151.90 85.88 151.90 82.51L151.90 81.82L143.16 81.82Q140.75 81.82 139.37 82.85Q137.99 83.89 137.99 85.75Q137.99 87.60 139.44 88.77Q140.88 89.94 143.64 89.94M179.98 96L171.30 96L171.30 61.86L179.84 61.86L179.84 65.58L181.08 65.58Q181.97 63.86 184.04 62.59Q186.10 61.31 189.47 61.31Q193.12 61.31 195.32 62.72Q197.52 64.14 198.69 66.41L199.93 66.41Q201.10 64.20 203.24 62.76Q205.37 61.31 209.29 61.31Q212.46 61.31 215.04 62.66Q217.62 64 219.17 66.72Q220.72 69.43 220.72 73.56L220.72 96L212.05 96L212.05 74.18Q212.05 71.36 210.60 69.95Q209.16 68.54 206.54 68.54Q203.58 68.54 201.96 70.43Q200.35 72.33 200.35 75.83L200.35 96L191.67 96L191.67 74.18Q191.67 71.36 190.23 69.95Q188.78 68.54 186.17 68.54Q183.21 68.54 181.59 70.43Q179.98 72.33 179.98 75.83L179.98 96M254.72 109.76L233.24 109.76L233.24 102.19L251.83 102.19Q253.75 102.19 253.75 100.13L253.75 91.53L252.51 91.53Q251.96 92.70 250.79 93.87Q249.62 95.04 247.63 95.79Q245.63 96.55 242.53 96.55Q238.54 96.55 235.55 94.73Q232.56 92.90 230.90 89.67Q229.25 86.43 229.25 82.24L229.25 61.86L237.92 61.86L237.92 81.55Q237.92 85.40 239.82 87.33Q241.71 89.26 245.22 89.26Q249.21 89.26 251.41 86.61Q253.62 83.96 253.62 79.21L253.62 61.86L262.29 61.86L262.29 102.06Q262.29 105.57 260.22 107.67Q258.16 109.76 254.72 109.76M284.93 96.55Q280.94 96.55 277.94 94.73Q274.95 92.90 273.30 89.67Q271.65 86.43 271.65 82.24L271.65 61.86L280.32 61.86L280.32 81.55Q280.32 85.40 282.21 87.33Q284.10 89.26 287.61 89.26Q291.61 89.26 293.81 86.61Q296.01 83.96 296.01 79.21L296.01 61.86L304.68 61.86L304.68 96L296.15 96L296.15 91.53L294.91 91.53Q294.08 93.25 291.81 94.90Q289.54 96.55 284.93 96.55M322.99 96L314.32 96L314.32 47.82L322.99 47.82L322.99 74.46L324.23 74.46L335.51 61.86L346.80 61.86L331.04 78.38L347.35 96L336.20 96L324.23 82.44L322.99 82.44L322.99 96M375.84 96L366.21 96Q362.84 96 360.74 93.90Q358.64 91.80 358.64 88.29L358.64 69.02L350.10 69.02L350.10 61.86L358.64 61.86L358.64 51.27L367.31 51.27L367.31 61.86L376.67 61.86L376.67 69.02L367.31 69.02L367.31 86.78Q367.31 88.84 369.24 88.84L375.84 88.84L375.84 96M393.19 96L384.52 96L384.52 47.82L393.19 47.82L393.19 66.06L394.43 66.06Q394.98 64.96 396.15 63.86Q397.32 62.76 399.28 62.04Q401.24 61.31 404.27 61.31Q408.26 61.31 411.25 63.14Q414.25 64.96 415.90 68.16Q417.55 71.36 417.55 75.63L417.55 96L408.88 96L408.88 76.32Q408.88 72.46 406.99 70.54Q405.09 68.61 401.58 68.61Q397.59 68.61 395.39 71.26Q393.19 73.91 393.19 78.66L393.19 96M437.51 96.96Q433.86 96.96 430.97 95.69Q428.08 94.42 426.39 91.97Q424.71 89.53 424.71 86.02Q424.71 82.51 426.39 80.14Q428.08 77.76 431.07 76.56Q434.07 75.35 437.92 75.35L447.28 75.35L447.28 73.43Q447.28 71.02 445.77 69.47Q444.25 67.92 440.95 67.92Q437.72 67.92 436.13 69.40Q434.55 70.88 434.07 73.22L426.08 70.54Q426.91 67.92 428.73 65.75Q430.56 63.58 433.62 62.24Q436.68 60.90 441.09 60.90Q447.83 60.90 451.76 64.27Q455.68 67.65 455.68 74.05L455.68 86.78Q455.68 88.84 457.61 88.84L460.36 88.84L460.36 96L454.58 96Q452.03 96 450.38 94.76Q448.73 93.52 448.73 91.46L448.73 91.39L447.42 91.39Q447.14 92.21 446.18 93.56Q445.22 94.90 443.15 95.93Q441.09 96.96 437.51 96.96M439.02 89.94Q442.67 89.94 444.98 87.91Q447.28 85.88 447.28 82.51L447.28 81.82L438.54 81.82Q436.13 81.82 434.76 82.85Q433.38 83.89 433.38 85.75Q433.38 87.60 434.83 88.77Q436.27 89.94 439.02 89.94M500.62 96.96Q495.04 96.96 490.78 94.97Q486.51 92.97 484.10 89.26Q481.69 85.54 481.69 80.31L481.69 78.38L490.64 78.38L490.64 80.31Q490.64 84.64 493.32 86.81Q496.01 88.98 500.62 88.98Q505.30 88.98 507.60 87.12Q509.91 85.26 509.91 82.37Q509.91 80.38 508.77 79.14Q507.64 77.90 505.47 77.11Q503.30 76.32 500.21 75.63L498.62 75.28Q493.67 74.18 490.12 72.50Q486.58 70.81 484.69 68.06Q482.79 65.31 482.79 60.90Q482.79 56.50 484.89 53.36Q486.99 50.23 490.81 48.55Q494.63 46.86 499.79 46.86Q504.96 46.86 508.98 48.62Q513.01 50.37 515.31 53.85Q517.62 57.32 517.62 62.55L517.62 64.62L508.67 64.62L508.67 62.55Q508.67 59.80 507.60 58.11Q506.54 56.43 504.54 55.64Q502.55 54.84 499.79 54.84Q495.66 54.84 493.70 56.39Q491.74 57.94 491.74 60.63Q491.74 62.41 492.67 63.65Q493.60 64.89 495.46 65.72Q497.32 66.54 500.21 67.16L501.79 67.51Q506.95 68.61 510.77 70.33Q514.59 72.05 516.72 74.87Q518.86 77.69 518.86 82.10Q518.86 86.50 516.62 89.84Q514.38 93.18 510.29 95.07Q506.19 96.96 500.62 96.96M538.88 96.55Q534.89 96.55 531.90 94.73Q528.91 92.90 527.25 89.67Q525.60 86.43 525.60 82.24L525.60 61.86L534.27 61.86L534.27 81.55Q534.27 85.40 536.17 87.33Q538.06 89.26 541.57 89.26Q545.56 89.26 547.76 86.61Q549.97 83.96 549.97 79.21L549.97 61.86L558.64 61.86L558.64 96L550.10 96L550.10 91.53L548.86 91.53Q548.04 93.25 545.77 94.90Q543.50 96.55 538.88 96.55M588.78 96.96Q584.17 96.96 581.69 95.38Q579.21 93.80 578.04 91.87L576.81 91.87L576.81 96L568.27 96L568.27 47.82L576.94 47.82L576.94 65.79L578.18 65.79Q578.94 64.55 580.21 63.45Q581.49 62.35 583.58 61.62Q585.68 60.90 588.78 60.90Q592.91 60.90 596.42 62.93Q599.93 64.96 602.06 68.88Q604.20 72.81 604.20 78.38L604.20 79.48Q604.20 85.06 602.06 88.98Q599.93 92.90 596.42 94.93Q592.91 96.96 588.78 96.96M586.17 89.39Q590.16 89.39 592.84 86.81Q595.53 84.23 595.53 79.28L595.53 78.59Q595.53 73.63 592.88 71.05Q590.23 68.47 586.17 68.47Q582.17 68.47 579.49 71.05Q576.81 73.63 576.81 78.59L576.81 79.28Q576.81 84.23 579.49 86.81Q582.17 89.39 586.17 89.39M620.85 96L612.18 96L612.18 61.86L620.71 61.86L620.71 65.72L621.95 65.72Q622.71 63.65 624.47 62.69Q626.22 61.73 628.56 61.73L632.69 61.73L632.69 69.43L628.42 69.43Q625.12 69.43 622.99 71.19Q620.85 72.94 620.85 76.59L620.85 96M649.21 96.96Q645.56 96.96 642.67 95.69Q639.78 94.42 638.09 91.97Q636.41 89.53 636.41 86.02Q636.41 82.51 638.09 80.14Q639.78 77.76 642.77 76.56Q645.77 75.35 649.62 75.35L658.98 75.35L658.98 73.43Q658.98 71.02 657.47 69.47Q655.95 67.92 652.65 67.92Q649.41 67.92 647.83 69.40Q646.25 70.88 645.77 73.22L637.78 70.54Q638.61 67.92 640.43 65.75Q642.26 63.58 645.32 62.24Q648.38 60.90 652.79 60.90Q659.53 60.90 663.45 64.27Q667.38 67.65 667.38 74.05L667.38 86.78Q667.38 88.84 669.30 88.84L672.06 88.84L672.06 96L666.28 96Q663.73 96 662.08 94.76Q660.43 93.52 660.43 91.46L660.43 91.39L659.12 91.39Q658.84 92.21 657.88 93.56Q656.92 94.90 654.85 95.93Q652.79 96.96 649.21 96.96M650.72 89.94Q654.37 89.94 656.67 87.91Q658.98 85.88 658.98 82.51L658.98 81.82L650.24 81.82Q647.83 81.82 646.45 82.85Q645.08 83.89 645.08 85.75Q645.08 87.60 646.52 88.77Q647.97 89.94 650.72 89.94M687.06 96L678.39 96L678.39 61.86L686.92 61.86L686.92 65.58L688.16 65.58Q689.06 63.86 691.12 62.59Q693.18 61.31 696.56 61.31Q700.20 61.31 702.41 62.72Q704.61 64.14 705.78 66.41L707.02 66.41Q708.19 64.20 710.32 62.76Q712.46 61.31 716.38 61.31Q719.54 61.31 722.12 62.66Q724.71 64 726.25 66.72Q727.80 69.43 727.80 73.56L727.80 96L719.13 96L719.13 74.18Q719.13 71.36 717.69 69.95Q716.24 68.54 713.63 68.54Q710.67 68.54 709.05 70.43Q707.43 72.33 707.43 75.83L707.43 96L698.76 96L698.76 74.18Q698.76 71.36 697.31 69.95Q695.87 68.54 693.25 68.54Q690.29 68.54 688.68 70.43Q687.06 72.33 687.06 75.83L687.06 96M747.76 96.96Q744.11 96.96 741.22 95.69Q738.33 94.42 736.65 91.97Q734.96 89.53 734.96 86.02Q734.96 82.51 736.65 80.14Q738.33 77.76 741.33 76.56Q744.32 75.35 748.17 75.35L757.53 75.35L757.53 73.43Q757.53 71.02 756.02 69.47Q754.51 67.92 751.20 67.92Q747.97 67.92 746.38 69.40Q744.80 70.88 744.32 73.22L736.34 70.54Q737.16 67.92 738.99 65.75Q740.81 63.58 743.87 62.24Q746.94 60.90 751.34 60.90Q758.08 60.90 762.01 64.27Q765.93 67.65 765.93 74.05L765.93 86.78Q765.93 88.84 767.86 88.84L770.61 88.84L770.61 96L764.83 96Q762.28 96 760.63 94.76Q758.98 93.52 758.98 91.46L758.98 91.39L757.67 91.39Q757.40 92.21 756.43 93.56Q755.47 94.90 753.40 95.93Q751.34 96.96 747.76 96.96M749.28 89.94Q752.92 89.94 755.23 87.91Q757.53 85.88 757.53 82.51L757.53 81.82L748.79 81.82Q746.38 81.82 745.01 82.85Q743.63 83.89 743.63 85.75Q743.63 87.60 745.08 88.77Q746.52 89.94 749.28 89.94M785.61 96L776.94 96L776.94 61.86L785.48 61.86L785.48 66.34L786.71 66.34Q787.54 64.55 789.81 62.93Q792.08 61.31 796.69 61.31Q800.69 61.31 803.68 63.14Q806.67 64.96 808.33 68.16Q809.98 71.36 809.98 75.63L809.98 96L801.31 96L801.31 76.32Q801.31 72.46 799.41 70.54Q797.52 68.61 794.01 68.61Q790.02 68.61 787.82 71.26Q785.61 73.91 785.61 78.66L785.61 96M828.01 96L819.34 96L819.34 61.86L828.01 61.86L828.01 96M823.67 57.87Q821.33 57.87 819.72 56.36Q818.10 54.84 818.10 52.37Q818.10 49.89 819.72 48.37Q821.33 46.86 823.67 46.86Q826.08 46.86 827.66 48.37Q829.25 49.89 829.25 52.37Q829.25 54.84 827.66 56.36Q826.08 57.87 823.67 57.87M848.24 96.96Q844.59 96.96 841.70 95.69Q838.81 94.42 837.13 91.97Q835.44 89.53 835.44 86.02Q835.44 82.51 837.13 80.14Q838.81 77.76 841.81 76.56Q844.80 75.35 848.66 75.35L858.01 75.35L858.01 73.43Q858.01 71.02 856.50 69.47Q854.99 67.92 851.68 67.92Q848.45 67.92 846.87 69.40Q845.28 70.88 844.80 73.22L836.82 70.54Q837.64 67.92 839.47 65.75Q841.29 63.58 844.35 62.24Q847.42 60.90 851.82 60.90Q858.57 60.90 862.49 64.27Q866.41 67.65 866.41 74.05L866.41 86.78Q866.41 88.84 868.34 88.84L871.09 88.84L871.09 96L865.31 96Q862.76 96 861.11 94.76Q859.46 93.52 859.46 91.46L859.46 91.39L858.15 91.39Q857.88 92.21 856.91 93.56Q855.95 94.90 853.89 95.93Q851.82 96.96 848.24 96.96M849.76 89.94Q853.40 89.94 855.71 87.91Q858.01 85.88 858.01 82.51L858.01 81.82L849.27 81.82Q846.87 81.82 845.49 82.85Q844.11 83.89 844.11 85.75Q844.11 87.60 845.56 88.77Q847 89.94 849.76 89.94M886.09 96L877.42 96L877.42 61.86L885.96 61.86L885.96 66.34L887.20 66.34Q888.02 64.55 890.29 62.93Q892.56 61.31 897.17 61.31Q901.17 61.31 904.16 63.14Q907.15 64.96 908.81 68.16Q910.46 71.36 910.46 75.63L910.46 96L901.79 96L901.79 76.32Q901.79 72.46 899.89 70.54Q898 68.61 894.49 68.61Q890.50 68.61 888.30 71.26Q886.09 73.91 886.09 78.66" fill="#F0F3F6"/>
  <rect x="309.45799999999997" y="140.5" width="38" height="2.5" rx="1.25" fill="#9AA4AE"/>
  <rect x="652.5419999999999" y="140.5" width="38" height="2.5" rx="1.25" fill="#9AA4AE"/>
  <path d="M368.63 146L366.51 146L366.51 134.80L373.55 134.80L373.55 136.72L368.63 136.72L368.63 139.42L373.17 139.42L373.17 141.34L368.63 141.34M383.88 146.22Q382.50 146.22 381.52 145.72Q380.53 145.22 380.01 144.28Q379.49 143.34 379.49 142.06L379.49 134.80L381.61 134.80L381.61 142.13Q381.61 143.15 382.19 143.74Q382.77 144.34 383.88 144.34Q384.98 144.34 385.57 143.74Q386.15 143.15 386.15 142.13L386.15 134.80L388.26 134.80L388.26 142.06Q388.26 143.34 387.74 144.28Q387.22 145.22 386.24 145.72Q385.25 146.22 383.88 146.22M402.04 146L394.81 146L394.81 134.80L396.92 134.80L396.92 144.08L402.04 144.08M415.21 146L407.98 146L407.98 134.80L410.09 134.80L410.09 144.08L415.21 144.08M425.92 142.83L421.19 142.83L421.19 141.01L425.92 141.01M436.45 146.22Q435.16 146.22 434.17 145.76Q433.17 145.30 432.61 144.43Q432.05 143.57 432.05 142.35L432.05 141.90L434.13 141.90L434.13 142.35Q434.13 143.36 434.76 143.86Q435.38 144.37 436.45 144.37Q437.54 144.37 438.08 143.94Q438.61 143.50 438.61 142.83Q438.61 142.37 438.35 142.08Q438.09 141.79 437.58 141.61Q437.08 141.42 436.36 141.26L435.99 141.18Q434.84 140.93 434.01 140.54Q433.19 140.14 432.75 139.50Q432.31 138.86 432.31 137.84Q432.31 136.82 432.80 136.09Q433.29 135.36 434.17 134.97Q435.06 134.58 436.26 134.58Q437.46 134.58 438.40 134.98Q439.33 135.39 439.87 136.20Q440.41 137.01 440.41 138.22L440.41 138.70L438.33 138.70L438.33 138.22Q438.33 137.58 438.08 137.19Q437.83 136.80 437.37 136.62Q436.90 136.43 436.26 136.43Q435.30 136.43 434.85 136.79Q434.39 137.15 434.39 137.78Q434.39 138.19 434.61 138.48Q434.82 138.77 435.25 138.96Q435.69 139.15 436.36 139.30L436.73 139.38Q437.93 139.63 438.81 140.03Q439.70 140.43 440.20 141.09Q440.69 141.74 440.69 142.77Q440.69 143.79 440.17 144.57Q439.65 145.34 438.70 145.78Q437.75 146.22 436.45 146.22M451.47 146L449.35 146L449.35 136.72L446.09 136.72L446.09 134.80L454.73 134.80L454.73 136.72L451.47 136.72M462.08 146L459.90 146L462.85 134.80L466.53 134.80L469.47 146L467.29 146L466.69 143.54L462.69 143.54L462.08 146M464.54 136.13L463.18 141.58L466.19 141.58L464.83 136.13M479.57 146.22Q477.49 146.22 476.27 145.06Q475.06 143.90 475.06 141.74L475.06 139.06Q475.06 136.90 476.27 135.74Q477.49 134.58 479.57 134.58Q481.63 134.58 482.76 135.70Q483.89 136.83 483.89 138.80L483.89 138.90L481.81 138.90L481.81 138.74Q481.81 137.74 481.26 137.10Q480.71 136.46 479.57 136.46Q478.45 136.46 477.81 137.15Q477.17 137.84 477.17 139.02L477.17 141.78Q477.17 142.94 477.81 143.64Q478.45 144.34 479.57 144.34Q480.71 144.34 481.26 143.69Q481.81 143.04 481.81 142.06L481.81 141.78L483.89 141.78L483.89 142Q483.89 143.97 482.76 145.10Q481.63 146.22 479.57 146.22M492.23 146L490.12 146L490.12 134.80L492.23 134.80L492.23 139.25L492.52 139.25L496.15 134.80L498.85 134.80L494.18 140.32L499.01 146L496.23 146L492.52 141.46L492.23 141.46M517.49 146L512.88 146L512.88 144.14L514.35 144.14L514.35 136.66L512.88 136.66L512.88 134.80L517.49 134.80Q519.74 134.80 520.92 135.94Q522.09 137.09 522.09 139.34L522.09 141.46Q522.09 143.71 520.92 144.86Q519.74 146 517.49 146M516.46 136.72L516.46 144.08L517.52 144.08Q518.80 144.08 519.39 143.41Q519.98 142.74 519.98 141.52L519.98 139.28Q519.98 138.05 519.39 137.38Q518.80 136.72 517.52 136.72M535.65 146L528.35 146L528.35 134.80L535.55 134.80L535.55 136.72L530.47 136.72L530.47 139.39L535.11 139.39L535.11 141.31L530.47 141.31L530.47 144.08L535.65 144.08M547.41 146L543.80 146L540.95 134.80L543.13 134.80L545.49 144.64L545.72 144.64L548.09 134.80L550.26 134.80M563.40 146L556.11 146L556.11 134.80L563.31 134.80L563.31 136.72L558.22 136.72L558.22 139.39L562.86 139.39L562.86 141.31L558.22 141.31L558.22 144.08L563.40 144.08M576.70 146L569.47 146L569.47 134.80L571.58 134.80L571.58 144.08L576.70 144.08M586.99 146.22Q584.88 146.22 583.63 145.06Q582.39 143.90 582.39 141.74L582.39 139.06Q582.39 136.90 583.63 135.74Q584.88 134.58 586.99 134.58Q589.11 134.58 590.35 135.74Q591.60 136.90 591.60 139.06L591.60 141.74Q591.60 143.90 590.35 145.06Q589.11 146.22 586.99 146.22M586.99 144.34Q588.18 144.34 588.83 143.65Q589.49 142.96 589.49 141.81L589.49 138.99Q589.49 137.84 588.83 137.15Q588.18 136.46 586.99 136.46Q585.83 136.46 585.16 137.15Q584.50 137.84 584.50 138.99L584.50 141.81Q584.50 142.96 585.16 143.65Q585.83 144.34 586.99 144.34M600.07 146L597.96 146L597.96 134.80L602.57 134.80Q603.62 134.80 604.43 135.22Q605.24 135.65 605.69 136.42Q606.15 137.18 606.15 138.24L606.15 138.46Q606.15 139.50 605.68 140.28Q605.21 141.06 604.40 141.48Q603.59 141.90 602.57 141.90L600.07 141.90L600.07 146M600.07 136.72L600.07 139.98L602.36 139.98Q603.11 139.98 603.57 139.57Q604.04 139.15 604.04 138.43L604.04 138.27Q604.04 137.55 603.57 137.14Q603.11 136.72 602.36 136.72M619.42 146L612.12 146L612.12 134.80L619.32 134.80L619.32 136.72L614.23 136.72L614.23 139.39L618.87 139.39L618.87 141.31L614.23 141.31L614.23 144.08L619.42 144.08M627.60 146L625.49 146L625.49 134.80L630.35 134.80Q631.41 134.80 632.19 135.17Q632.97 135.54 633.41 136.21Q633.84 136.88 633.84 137.79L633.84 137.98Q633.84 138.99 633.36 139.62Q632.88 140.24 632.17 140.53L632.17 140.82Q632.81 140.85 633.17 141.26Q633.52 141.66 633.52 142.34L633.52 146L631.41 146L631.41 142.64Q631.41 142.26 631.21 142.02Q631.01 141.78 630.54 141.78L627.60 141.78L627.60 146M627.60 136.72L627.60 139.86L630.13 139.86Q630.88 139.86 631.30 139.45Q631.73 139.04 631.73 138.37L631.73 138.21Q631.73 137.54 631.31 137.13Q630.89 136.72 630.13 136.72" fill="#9AA4AE"/>
</svg>
