<svg xmlns="http://www.w3.org/2000/svg" width="1000" height="170" viewBox="0 0 1000 170" role="img" aria-label="Samyuktha Subramanian — Full-Stack Developer">
  <defs>
    <linearGradient id="teal" x1="0" y1="0" x2="1" y2="0">
      <stop offset="0" stop-color="#0EA5A0"/>
      <stop offset="0.55" stop-color="#14B8A6"/>
      <stop offset="1" stop-color="#2DD4BF"/>
    </linearGradient>
  </defs>
  <path d="M106.85 96.97Q101.65 96.97 97.56 95.13Q93.46 93.29 91.10 89.51Q88.75 85.73 88.75 79.91L88.75 78.59L93.19 78.59L93.19 79.91Q93.19 86.64 97.04 89.86Q100.89 93.09 106.85 93.09Q112.89 93.09 116.15 90.28Q119.41 87.47 119.41 83.10Q119.41 80.18 117.98 78.41Q116.56 76.65 114.03 75.57Q111.50 74.50 108.17 73.66L103.73 72.55Q99.78 71.51 96.65 69.95Q93.53 68.39 91.73 65.86Q89.93 63.33 89.93 59.37Q89.93 55.42 91.97 52.51Q94.02 49.59 97.63 48.03Q101.23 46.47 106.02 46.47Q110.81 46.47 114.66 48.14Q118.51 49.80 120.76 53.03Q123.01 56.25 123.01 61.11L123.01 64.37L118.57 64.37L118.57 61.11Q118.57 57.29 116.91 54.93Q115.24 52.58 112.40 51.47Q109.56 50.36 106.02 50.36Q100.95 50.36 97.66 52.68Q94.36 55 94.36 59.37Q94.36 62.29 95.72 64.02Q97.07 65.76 99.53 66.80Q102 67.84 105.33 68.67L109.76 69.78Q113.58 70.68 116.77 72.17Q119.96 73.66 121.90 76.26Q123.85 78.87 123.85 83.10Q123.85 87.33 121.73 90.45Q119.62 93.57 115.80 95.27Q111.98 96.97 106.85 96.97M144.17 96.97Q140.63 96.97 137.76 95.76Q134.88 94.54 133.21 92.18Q131.55 89.83 131.55 86.50Q131.55 83.10 133.21 80.88Q134.88 78.66 137.72 77.55Q140.56 76.44 144.03 76.44L156.38 76.44L156.38 73.73Q156.38 69.64 154.02 67.35Q151.66 65.06 147.15 65.06Q142.72 65.06 140.11 67.25Q137.51 69.43 136.61 73.11L132.59 71.93Q133.42 68.95 135.22 66.55Q137.03 64.16 140.01 62.74Q142.99 61.32 147.15 61.32Q153.54 61.32 157.04 64.65Q160.54 67.97 160.54 73.94L160.54 90.31Q160.54 92.39 162.49 92.39L165.75 92.39L165.75 96L161.31 96Q159.16 96 157.91 94.72Q156.66 93.43 156.66 91.21L156.66 90.73L155.96 90.73Q155.06 92.25 153.64 93.71Q152.22 95.17 149.93 96.07Q147.64 96.97 144.17 96.97M144.45 93.23Q149.79 93.23 153.09 90Q156.38 86.77 156.38 80.88L156.38 80.05L144.10 80.05Q140.50 80.05 138.10 81.61Q135.71 83.17 135.71 86.43Q135.71 89.69 138.17 91.46Q140.63 93.23 144.45 93.23M177.82 96L173.65 96L173.65 62.29L177.68 62.29L177.68 66.73L178.51 66.73Q179.55 64.85 181.84 63.22Q184.13 61.59 188.36 61.59Q192.45 61.59 194.98 63.47Q197.52 65.34 198.63 67.97L199.46 67.97Q200.64 65.34 203.14 63.47Q205.63 61.59 210.14 61.59Q213.61 61.59 216.18 63.02Q218.74 64.44 220.20 66.97Q221.66 69.50 221.66 72.90L221.66 96L217.49 96L217.49 73.32Q217.49 69.71 215.31 67.52Q213.12 65.34 209.17 65.34Q205.15 65.34 202.44 67.94Q199.74 70.54 199.74 75.54L199.74 96L195.57 96L195.57 73.32Q195.57 69.71 193.39 67.52Q191.20 65.34 187.25 65.34Q183.23 65.34 180.52 67.94Q177.82 70.54 177.82 75.54L177.82 96M257.66 109.87L237.13 109.87L237.13 106.13L256.83 106.13Q258.91 106.13 258.91 104.05L258.91 90.17L258.08 90.17Q257.24 91.84 255.75 93.33Q254.26 94.82 251.87 95.76Q249.47 96.69 245.87 96.69Q242.26 96.69 239.17 95.17Q236.09 93.64 234.25 90.59Q232.41 87.54 232.41 82.89L232.41 62.29L236.57 62.29L236.57 82.61Q236.57 88.09 239.35 90.52Q242.12 92.95 246.77 92.95Q251.97 92.95 255.44 89.55Q258.91 86.15 258.91 79.21L258.91 62.29L263.07 62.29L263.07 104.60Q263.07 107.10 261.72 108.49Q260.36 109.87 257.66 109.87M288.25 96.69Q284.64 96.69 281.56 95.17Q278.47 93.64 276.63 90.55Q274.79 87.47 274.79 82.82L274.79 62.29L278.96 62.29L278.96 82.54Q278.96 88.02 281.73 90.49Q284.51 92.95 289.15 92.95Q294.36 92.95 297.82 89.51Q301.29 86.08 301.29 79.14L301.29 62.29L305.45 62.29L305.45 96L301.43 96L301.43 89.76L300.60 89.76Q299.35 92.46 296.51 94.58Q293.66 96.69 288.25 96.69M321.83 96L317.66 96L317.66 47.44L321.83 47.44L321.83 76.72L322.66 76.72L339.93 62.29L346.04 62.29L326.06 78.73L346.59 96L340.56 96L322.66 80.81L321.83 80.81L321.83 96M375.17 96L366.43 96Q363.72 96 362.37 94.61Q361.02 93.23 361.02 90.73L361.02 66.03L350.20 66.03L350.20 62.29L361.02 62.29L361.02 49.66L365.18 49.66L365.18 62.29L376.97 62.29L376.97 66.03L365.18 66.03L365.18 90.17Q365.18 92.25 367.26 92.25L375.17 92.25L375.17 96M390.43 96L386.27 96L386.27 47.44L390.43 47.44L390.43 68.18L391.26 68.18Q392.10 66.52 393.59 65.03Q395.08 63.54 397.47 62.60Q399.87 61.66 403.47 61.66Q407.15 61.66 410.20 63.19Q413.25 64.71 415.09 67.77Q416.93 70.82 416.93 75.47L416.93 96L412.77 96L412.77 75.74Q412.77 70.19 409.99 67.80Q407.22 65.41 402.57 65.41Q397.37 65.41 393.90 68.81Q390.43 72.21 390.43 79.14L390.43 96M439.06 96.97Q435.52 96.97 432.64 95.76Q429.76 94.54 428.10 92.18Q426.43 89.83 426.43 86.50Q426.43 83.10 428.10 80.88Q429.76 78.66 432.61 77.55Q435.45 76.44 438.92 76.44L451.27 76.44L451.27 73.73Q451.27 69.64 448.91 67.35Q446.55 65.06 442.04 65.06Q437.60 65.06 435 67.25Q432.40 69.43 431.50 73.11L427.47 71.93Q428.31 68.95 430.11 66.55Q431.91 64.16 434.90 62.74Q437.88 61.32 442.04 61.32Q448.42 61.32 451.93 64.65Q455.43 67.97 455.43 73.94L455.43 90.31Q455.43 92.39 457.37 92.39L460.63 92.39L460.63 96L456.19 96Q454.04 96 452.79 94.72Q451.55 93.43 451.55 91.21L451.55 90.73L450.85 90.73Q449.95 92.25 448.53 93.71Q447.11 95.17 444.82 96.07Q442.53 96.97 439.06 96.97M439.34 93.23Q444.68 93.23 447.97 90Q451.27 86.77 451.27 80.88L451.27 80.05L438.99 80.05Q435.38 80.05 432.99 81.61Q430.60 83.17 430.60 86.43Q430.60 89.69 433.06 91.46Q435.52 93.23 439.34 93.23M502.12 96.97Q496.91 96.97 492.82 95.13Q488.73 93.29 486.37 89.51Q484.01 85.73 484.01 79.91L484.01 78.59L488.45 78.59L488.45 79.91Q488.45 86.64 492.30 89.86Q496.15 93.09 502.12 93.09Q508.15 93.09 511.41 90.28Q514.67 87.47 514.67 83.10Q514.67 80.18 513.25 78.41Q511.83 76.65 509.30 75.57Q506.76 74.50 503.43 73.66L498.99 72.55Q495.04 71.51 491.92 69.95Q488.80 68.39 486.99 65.86Q485.19 63.33 485.19 59.37Q485.19 55.42 487.24 52.51Q489.28 49.59 492.89 48.03Q496.50 46.47 501.28 46.47Q506.07 46.47 509.92 48.14Q513.77 49.80 516.02 53.03Q518.28 56.25 518.28 61.11L518.28 64.37L513.84 64.37L513.84 61.11Q513.84 57.29 512.17 54.93Q510.51 52.58 507.67 51.47Q504.82 50.36 501.28 50.36Q496.22 50.36 492.92 52.68Q489.63 55 489.63 59.37Q489.63 62.29 490.98 64.02Q492.33 65.76 494.80 66.80Q497.26 67.84 500.59 68.67L505.03 69.78Q508.84 70.68 512.04 72.17Q515.23 73.66 517.17 76.26Q519.11 78.87 519.11 83.10Q519.11 87.33 517 90.45Q514.88 93.57 511.06 95.27Q507.25 96.97 502.12 96.97M542.07 96.69Q538.47 96.69 535.38 95.17Q532.29 93.64 530.45 90.55Q528.61 87.47 528.61 82.82L528.61 62.29L532.78 62.29L532.78 82.54Q532.78 88.02 535.55 90.49Q538.33 92.95 542.97 92.95Q548.18 92.95 551.65 89.51Q555.11 86.08 555.11 79.14L555.11 62.29L559.28 62.29L559.28 96L555.25 96L555.25 89.76L554.42 89.76Q553.17 92.46 550.33 94.58Q547.48 96.69 542.07 96.69M589.52 96.97Q583.97 96.97 580.88 94.79Q577.80 92.60 576.34 89.83L575.51 89.83L575.51 96L571.48 96L571.48 47.44L575.65 47.44L575.65 68.18L576.48 68.18Q577.38 66.45 579.01 64.89Q580.64 63.33 583.24 62.32Q585.84 61.32 589.52 61.32Q594.10 61.32 597.78 63.43Q601.45 65.55 603.60 69.47Q605.75 73.39 605.75 78.73L605.75 79.56Q605.75 84.90 603.57 88.82Q601.38 92.74 597.71 94.86Q594.03 96.97 589.52 96.97M588.55 93.23Q594.31 93.23 597.88 89.55Q601.45 85.87 601.45 79.42L601.45 78.87Q601.45 72.41 597.88 68.74Q594.31 65.06 588.55 65.06Q582.86 65.06 579.25 68.74Q575.65 72.41 575.65 78.87L575.65 79.42Q575.65 85.87 579.25 89.55Q582.86 93.23 588.55 93.23M620.46 96L616.30 96L616.30 62.29L620.32 62.29L620.32 66.52L621.15 66.52Q622.12 64.23 624.03 63.19Q625.94 62.15 629.34 62.15L633.29 62.15L633.29 66.03L628.85 66.03Q625.04 66.03 622.75 68.18Q620.46 70.33 620.46 74.91L620.46 96M650.91 96.97Q647.37 96.97 644.50 95.76Q641.62 94.54 639.95 92.18Q638.29 89.83 638.29 86.50Q638.29 83.10 639.95 80.88Q641.62 78.66 644.46 77.55Q647.31 76.44 650.77 76.44L663.12 76.44L663.12 73.73Q663.12 69.64 660.76 67.35Q658.40 65.06 653.90 65.06Q649.46 65.06 646.85 67.25Q644.25 69.43 643.35 73.11L639.33 71.93Q640.16 68.95 641.96 66.55Q643.77 64.16 646.75 62.74Q649.73 61.32 653.90 61.32Q660.28 61.32 663.78 64.65Q667.28 67.97 667.28 73.94L667.28 90.31Q667.28 92.39 669.23 92.39L672.49 92.39L672.49 96L668.05 96Q665.90 96 664.65 94.72Q663.40 93.43 663.40 91.21L663.40 90.73L662.70 90.73Q661.80 92.25 660.38 93.71Q658.96 95.17 656.67 96.07Q654.38 96.97 650.91 96.97M651.19 93.23Q656.53 93.23 659.83 90Q663.12 86.77 663.12 80.88L663.12 80.05L650.84 80.05Q647.24 80.05 644.84 81.61Q642.45 83.17 642.45 86.43Q642.45 89.69 644.91 91.46Q647.37 93.23 651.19 93.23M684.56 96L680.39 96L680.39 62.29L684.42 62.29L684.42 66.73L685.25 66.73Q686.29 64.85 688.58 63.22Q690.87 61.59 695.10 61.59Q699.19 61.59 701.73 63.47Q704.26 65.34 705.37 67.97L706.20 67.97Q707.38 65.34 709.88 63.47Q712.37 61.59 716.88 61.59Q720.35 61.59 722.92 63.02Q725.48 64.44 726.94 66.97Q728.40 69.50 728.40 72.90L728.40 96L724.24 96L724.24 73.32Q724.24 69.71 722.05 67.52Q719.87 65.34 715.91 65.34Q711.89 65.34 709.18 67.94Q706.48 70.54 706.48 75.54L706.48 96L702.31 96L702.31 73.32Q702.31 69.71 700.13 67.52Q697.94 65.34 693.99 65.34Q689.97 65.34 687.26 67.94Q684.56 70.54 684.56 75.54L684.56 96M750.53 96.97Q746.99 96.97 744.11 95.76Q741.23 94.54 739.57 92.18Q737.90 89.83 737.90 86.50Q737.90 83.10 739.57 80.88Q741.23 78.66 744.07 77.55Q746.92 76.44 750.39 76.44L762.74 76.44L762.74 73.73Q762.74 69.64 760.38 67.35Q758.02 65.06 753.51 65.06Q749.07 65.06 746.47 67.25Q743.87 69.43 742.96 73.11L738.94 71.93Q739.77 68.95 741.58 66.55Q743.38 64.16 746.36 62.74Q749.35 61.32 753.51 61.32Q759.89 61.32 763.39 64.65Q766.90 67.97 766.90 73.94L766.90 90.31Q766.90 92.39 768.84 92.39L772.10 92.39L772.10 96L767.66 96Q765.51 96 764.26 94.72Q763.01 93.43 763.01 91.21L763.01 90.73L762.32 90.73Q761.42 92.25 759.99 93.71Q758.57 95.17 756.28 96.07Q753.99 96.97 750.53 96.97M750.80 93.23Q756.15 93.23 759.44 90Q762.74 86.77 762.74 80.88L762.74 80.05L750.46 80.05Q746.85 80.05 744.46 81.61Q742.06 83.17 742.06 86.43Q742.06 89.69 744.53 91.46Q746.99 93.23 750.80 93.23M784.17 96L780.01 96L780.01 62.29L784.03 62.29L784.03 68.53L784.86 68.53Q786.11 65.82 788.96 63.71Q791.80 61.59 797.21 61.59Q800.89 61.59 803.94 63.12Q806.99 64.65 808.83 67.73Q810.67 70.82 810.67 75.47L810.67 96L806.51 96L806.51 75.74Q806.51 70.19 803.73 67.77Q800.96 65.34 796.31 65.34Q791.11 65.34 787.64 68.77Q784.17 72.21 784.17 79.14L784.17 96M826.62 96L822.46 96L822.46 62.29L826.62 62.29L826.62 96M824.54 56.46Q823.02 56.46 821.98 55.42Q820.94 54.38 820.94 52.85Q820.94 51.26 821.98 50.25Q823.02 49.25 824.54 49.25Q826.14 49.25 827.14 50.25Q828.15 51.26 828.15 52.85Q828.15 54.38 827.14 55.42Q826.14 56.46 824.54 56.46M849.17 96.97Q845.63 96.97 842.75 95.76Q839.87 94.54 838.21 92.18Q836.54 89.83 836.54 86.50Q836.54 83.10 838.21 80.88Q839.87 78.66 842.72 77.55Q845.56 76.44 849.03 76.44L861.38 76.44L861.38 73.73Q861.38 69.64 859.02 67.35Q856.66 65.06 852.15 65.06Q847.71 65.06 845.11 67.25Q842.51 69.43 841.61 73.11L837.58 71.93Q838.42 68.95 840.22 66.55Q842.02 64.16 845.01 62.74Q847.99 61.32 852.15 61.32Q858.53 61.32 862.04 64.65Q865.54 67.97 865.54 73.94L865.54 90.31Q865.54 92.39 867.48 92.39L870.74 92.39L870.74 96L866.30 96Q864.15 96 862.90 94.72Q861.66 93.43 861.66 91.21L861.66 90.73L860.96 90.73Q860.06 92.25 858.64 93.71Q857.22 95.17 854.93 96.07Q852.64 96.97 849.17 96.97M849.45 93.23Q854.79 93.23 858.08 90Q861.38 86.77 861.38 80.88L861.38 80.05L849.10 80.05Q845.49 80.05 843.10 81.61Q840.71 83.17 840.71 86.43Q840.71 89.69 843.17 91.46Q845.63 93.23 849.45 93.23M882.81 96L878.65 96L878.65 62.29L882.67 62.29L882.67 68.53L883.51 68.53Q884.76 65.82 887.60 63.71Q890.44 61.59 895.85 61.59Q899.53 61.59 902.58 63.12Q905.64 64.65 907.47 67.73Q909.31 70.82 909.31 75.47L909.31 96L905.15 96L905.15 75.74Q905.15 70.19 902.37 67.77Q899.60 65.34 894.95 65.34Q889.75 65.34 886.28 68.77Q882.81 72.21 882.81 79.14" fill="url(#teal)"/>
  <rect x="454" y="118" width="92" height="3" rx="1.5" fill="#14B8A6"/>
  <path d="M367.44 146L366.42 146L366.42 134.80L373.07 134.80L373.07 135.73L367.44 135.73L367.44 139.92L372.61 139.92L372.61 140.85L367.44 140.85M383.53 146.22Q382.33 146.22 381.42 145.80Q380.52 145.38 380.01 144.51Q379.49 143.65 379.49 142.34L379.49 134.80L380.52 134.80L380.52 142.34Q380.52 143.84 381.31 144.57Q382.10 145.30 383.53 145.30Q384.95 145.30 385.74 144.57Q386.53 143.84 386.53 142.34L386.53 134.80L387.56 134.80L387.56 142.34Q387.56 143.65 387.05 144.51Q386.55 145.38 385.64 145.80Q384.73 146.22 383.53 146.22M401.63 146L394.71 146L394.71 134.80L395.74 134.80L395.74 145.07L401.63 145.07M414.88 146L407.97 146L407.97 134.80L408.99 134.80L408.99 145.07L414.88 145.07M425.92 142.32L421.19 142.32L421.19 141.42L425.92 141.42M436.81 146.22Q435.61 146.22 434.66 145.80Q433.72 145.38 433.17 144.50Q432.63 143.63 432.63 142.29L432.63 141.98L433.65 141.98L433.65 142.29Q433.65 143.84 434.54 144.58Q435.43 145.33 436.81 145.33Q438.20 145.33 438.95 144.68Q439.70 144.03 439.70 143.02Q439.70 142.35 439.37 141.94Q439.05 141.54 438.46 141.29Q437.88 141.04 437.11 140.85L436.09 140.59Q435.17 140.35 434.45 139.99Q433.73 139.63 433.32 139.05Q432.90 138.46 432.90 137.55Q432.90 136.64 433.37 135.97Q433.85 135.30 434.68 134.94Q435.51 134.58 436.61 134.58Q437.72 134.58 438.61 134.96Q439.49 135.34 440.01 136.09Q440.53 136.83 440.53 137.95L440.53 138.70L439.51 138.70L439.51 137.95Q439.51 137.07 439.13 136.53Q438.74 135.98 438.09 135.73Q437.43 135.47 436.61 135.47Q435.45 135.47 434.69 136.01Q433.93 136.54 433.93 137.55Q433.93 138.22 434.24 138.62Q434.55 139.02 435.12 139.26Q435.69 139.50 436.45 139.70L437.48 139.95Q438.36 140.16 439.09 140.50Q439.83 140.85 440.28 141.45Q440.73 142.05 440.73 143.02Q440.73 144 440.24 144.72Q439.75 145.44 438.87 145.83Q437.99 146.22 436.81 146.22M451.34 146L450.31 146L450.31 135.73L446.57 135.73L446.57 134.80L455.08 134.80L455.08 135.73L451.34 135.73M461.55 146L460.48 146L464.14 134.80L465.97 134.80L469.63 146L468.56 146L467.60 143.02L462.51 143.02L461.55 146M464.96 135.41L462.80 142.10L467.31 142.10L465.15 135.41M479.92 146.22Q477.95 146.22 476.78 145.06Q475.60 143.90 475.60 141.66L475.60 139.14Q475.60 136.90 476.78 135.74Q477.95 134.58 479.92 134.58Q481.87 134.58 482.91 135.67Q483.94 136.77 483.94 138.66L483.94 138.74L482.91 138.74L482.91 138.62Q482.91 137.25 482.19 136.38Q481.46 135.50 479.92 135.50Q478.37 135.50 477.50 136.45Q476.63 137.39 476.63 139.10L476.63 141.70Q476.63 143.41 477.50 144.35Q478.37 145.30 479.92 145.30Q481.46 145.30 482.19 144.42Q482.91 143.55 482.91 142.18L482.91 141.94L483.94 141.94L483.94 142.14Q483.94 144.03 482.91 145.13Q481.87 146.22 479.92 146.22M491.73 146L490.71 146L490.71 134.80L491.73 134.80L491.73 139.86L491.93 139.86L497.11 134.80L498.55 134.80L492.76 140.34L498.74 146L497.29 146L491.93 140.85L491.73 140.85M517.15 146L512.89 146L512.89 145.07L514.49 145.07L514.49 135.73L512.89 135.73L512.89 134.80L517.15 134.80Q519.34 134.80 520.57 135.91Q521.79 137.02 521.79 139.38L521.79 141.44Q521.79 143.79 520.57 144.90Q519.34 146 517.15 146M515.52 135.74L515.52 145.07L517.15 145.07Q518.91 145.07 519.84 144.22Q520.77 143.38 520.77 141.49L520.77 139.33Q520.77 137.42 519.84 136.58Q518.91 135.74 517.15 135.74M535.43 146L528.59 146L528.59 134.80L535.36 134.80L535.36 135.73L529.62 135.73L529.62 139.92L534.91 139.92L534.91 140.85L529.62 140.85L529.62 145.07L535.43 145.07M546.66 146L544.84 146L541.24 134.80L542.31 134.80L545.65 145.41L545.85 145.41L549.19 134.80L550.26 134.80M563.42 146L556.59 146L556.59 134.80L563.35 134.80L563.35 135.73L557.61 135.73L557.61 139.92L562.91 139.92L562.91 140.85L557.61 140.85L557.61 145.07L563.42 145.07M577.07 146L570.16 146L570.16 134.80L571.18 134.80L571.18 145.07L577.07 145.07M587.36 146.22Q585.39 146.22 584.23 145.06Q583.06 143.90 583.06 141.66L583.06 139.14Q583.06 136.90 584.23 135.74Q585.39 134.58 587.36 134.58Q589.33 134.58 590.50 135.74Q591.67 136.90 591.67 139.14L591.67 141.66Q591.67 143.90 590.50 145.06Q589.33 146.22 587.36 146.22M587.36 145.30Q588.93 145.30 589.79 144.35Q590.64 143.41 590.64 141.70L590.64 139.10Q590.64 137.39 589.79 136.45Q588.93 135.50 587.36 135.50Q585.81 135.50 584.95 136.45Q584.08 137.39 584.08 139.10L584.08 141.70Q584.08 143.41 584.95 144.35Q585.81 145.30 587.36 145.30M599.59 146L598.57 146L598.57 134.80L602.71 134.80Q603.70 134.80 604.49 135.18Q605.29 135.55 605.75 136.26Q606.21 136.96 606.21 137.97L606.21 138.16Q606.21 139.17 605.74 139.88Q605.27 140.59 604.48 140.96Q603.69 141.33 602.71 141.33L599.59 141.33L599.59 146M599.59 135.73L599.59 140.40L602.60 140.40Q603.80 140.40 604.49 139.81Q605.19 139.22 605.19 138.14L605.19 137.98Q605.19 136.90 604.51 136.31Q603.83 135.73 602.60 135.73M619.50 146L612.67 146L612.67 134.80L619.43 134.80L619.43 135.73L613.69 135.73L613.69 139.92L618.99 139.92L618.99 140.85L613.69 140.85L613.69 145.07L619.50 145.07M627.26 146L626.24 146L626.24 134.80L630.62 134.80Q631.66 134.80 632.45 135.15Q633.25 135.50 633.70 136.17Q634.16 136.83 634.16 137.78L634.16 137.94Q634.16 139.07 633.61 139.72Q633.07 140.37 632.33 140.58L632.33 140.77Q632.89 140.78 633.28 141.12Q633.66 141.46 633.66 142.19L633.66 146L632.64 146L632.64 142.30Q632.64 141.79 632.36 141.52Q632.08 141.25 631.52 141.25L627.26 141.25L627.26 146M627.26 135.73L627.26 140.32L630.53 140.32Q631.77 140.32 632.45 139.74Q633.13 139.15 633.13 138.06L633.13 137.98Q633.13 136.90 632.47 136.31Q631.81 135.73 630.53 135.73" fill="#8B949E"/>
</svg>
